<?xml version="1.0" encoding="UTF-8"?>
<svg width="113px" height="26px" viewBox="0 0 113 26" version="1.1" xmlns="http://www.w3.org/2000/svg" xmlns:xlink="http://www.w3.org/1999/xlink">
    <!-- Generator: Sketch 48.2 (47327) - http://www.bohemiancoding.com/sketch -->
    <title>Group 2</title>
    <desc>Created with Sketch.</desc>
    <defs></defs>
    <g id="Administration---Comptabilite---Parametres---Profils-paiement" stroke="none" stroke-width="1" fill="none" fill-rule="evenodd" transform="translate(-934.000000, -303.000000)">
        <g id="Blocs/BLOC-1---carte" transform="translate(468.000000, 234.000000)" fill-rule="nonzero">
            <g id="Visa" transform="translate(442.000000, 40.000000)">
                <g id="Group-3" transform="translate(24.000000, 29.000000)">
                    <g id="Group-2">
                        <g id="logo-visa" transform="translate(0.000000, 1.793103)">
                            <path d="M23.5012625,0.452110382 L20.5654219,19.3774904 L25.2625166,19.3774904 L28.1987325,0.452110382 L23.5012625,0.452110382 Z M16.6133915,0.452110382 L12.1349991,13.468821 L11.6052591,10.6658679 L11.6056345,10.6667866 L11.4889014,10.0385566 C10.9469001,8.81333085 9.69161401,6.48466711 7.32129655,4.49734998 C6.62052336,3.90993457 5.91411996,3.40861044 5.23123831,2.98038513 L9.30137806,19.3774904 L14.1954049,19.3774904 L21.6689426,0.452110382 L16.6133915,0.452110382 Z M34.945473,5.70617109 C34.945473,3.56648817 39.5200794,3.84142902 41.5301887,5.0032674 L42.2004336,0.938604775 C42.2004336,0.938604775 40.1317701,0.113388496 37.9755258,0.113388496 C35.6443695,0.113388496 30.1088743,1.18270501 30.1088743,6.37849663 C30.1088743,11.2683755 36.6058838,11.3291382 36.6058838,13.8963902 C36.6058838,16.4636422 30.778744,16.0048387 28.8557152,14.385378 L28.1568187,18.6339032 C28.1568187,18.6339032 30.2541337,19.7032198 33.4594736,19.7032198 C36.664438,19.7032198 41.5009116,17.9615777 41.5009116,13.2240647 C41.5009116,8.30360757 34.945473,7.84532907 34.945473,5.70617109 Z M54.1132025,0.452110382 L50.3365843,0.452110382 C48.5927213,0.452110382 48.1680785,1.86251104 48.1680785,1.86251104 L41.1630991,19.3774904 L46.0590027,19.3774904 L47.0384086,16.5665318 L53.009932,16.5665318 L53.5608166,19.3774904 L57.873806,19.3774904 L54.1132025,0.452110382 Z M48.3920356,12.6828445 L50.8603187,5.60052555 L52.2488531,12.6828445 L48.3920356,12.6828445 Z" id="Shape" fill="#FFFFFF"></path>
                            <path d="M10.3107855,2.55495052 C10.3107855,2.55495052 10.1083015,0.901650099 7.94664847,0.901650099 L0.0931634692,0.901650099 L0.00117268703,1.21236641 C0.00117268703,1.21236641 3.77618251,1.96260785 7.39783094,4.7734091 C10.8588212,7.45984761 11.9878583,10.8086225 11.9878583,10.8086225 L10.3107855,2.55495052 Z" id="Shape" fill="#F6AC1D"></path>
                        </g>
                        <g id="logo-mastercard" transform="translate(69.952381, 0.000000)">
                            <path d="M43.047619,13 C43.047619,20.1157895 37.3079365,25.9315789 30.1333333,25.9315789 C23.0270597,25.9315789 17.2190476,20.1157895 17.2190476,13 C17.2190476,5.88421053 22.9587302,0.0684210526 30.0650038,0.0684210526 C37.3079365,0.0684210526 43.047619,5.88421053 43.047619,13 Z" id="Shape" fill="#FFB600"></path>
                            <path d="M30.1333333,0.0684210526 C37.239607,0.0684210526 43.047619,5.88421053 43.047619,13 C43.047619,20.1157895 37.3079365,25.9315789 30.1333333,25.9315789 C23.0270597,25.9315789 17.2190476,20.1157895 17.2190476,13" id="Shape" fill="#F7981D"></path>
                            <path d="M30.1333333,0.0684210526 C37.239607,0.0684210526 43.047619,5.88421053 43.047619,13 C43.047619,20.1157895 37.3079365,25.9315789 30.1333333,25.9315789" id="Shape" fill="#FF8500"></path>
                            <path d="M12.7776266,0.0684210526 C5.73968254,0.136842105 0,5.88421053 0,13 C0,20.1157895 5.73968254,25.9315789 12.9142857,25.9315789 C16.2624339,25.9315789 19.2689342,24.6315789 21.5921391,22.5789474 C22.070446,22.1684211 22.4804233,21.6894737 22.8904006,21.2105263 L20.225548,21.2105263 C19.8839002,20.8 19.5422525,20.3210526 19.2689342,19.9105263 L23.8470144,19.9105263 C24.1203326,19.5 24.3936508,19.0210526 24.5986395,18.5421053 L18.5173091,18.5421053 C18.3123205,18.1315789 18.1073318,17.6526316 17.9706727,17.1736842 L25.0769463,17.1736842 C25.4869237,15.8736842 25.7602419,14.5052632 25.7602419,13.0684211 C25.7602419,12.1105263 25.6235828,11.2210526 25.4869237,10.3315789 L17.5606954,10.3315789 C17.6290249,9.85263158 17.7656841,9.44210526 17.9023432,8.96315789 L25.0086168,8.96315789 C24.8719577,8.48421053 24.666969,8.00526316 24.4619803,7.59473684 L18.4489796,7.59473684 C18.6539683,7.11578947 18.9272865,6.70526316 19.2006047,6.22631579 L23.7786848,6.22631579 C23.5053666,5.74736842 23.1637188,5.26842105 22.7537415,4.85789474 L20.225548,4.85789474 C20.6355253,4.37894737 21.0455026,3.96842105 21.5238095,3.55789474 C19.2689342,1.43684211 16.1941043,0.205263158 12.8459562,0.205263158 C12.8459562,0.0684210526 12.8459562,0.0684210526 12.7776266,0.0684210526 Z" id="Shape" fill="#FF5050"></path>
                            <path d="M0,13 C0,20.1157895 5.73968254,25.9315789 12.9142857,25.9315789 C16.2624339,25.9315789 19.2689342,24.6315789 21.5921391,22.5789474 C22.070446,22.1684211 22.4804233,21.6894737 22.8904006,21.2105263 L20.225548,21.2105263 C19.8839002,20.8 19.5422525,20.3210526 19.2689342,19.9105263 L23.8470144,19.9105263 C24.1203326,19.5 24.3936508,19.0210526 24.5986395,18.5421053 L18.5173091,18.5421053 C18.3123205,18.1315789 18.1073318,17.6526316 17.9706727,17.1736842 L25.0769463,17.1736842 C25.4869237,15.8736842 25.7602419,14.5052632 25.7602419,13.0684211 C25.7602419,12.1105263 25.6235828,11.2210526 25.4869237,10.3315789 L17.5606954,10.3315789 C17.6290249,9.85263158 17.7656841,9.44210526 17.9023432,8.96315789 L25.0086168,8.96315789 C24.8719577,8.48421053 24.666969,8.00526316 24.4619803,7.59473684 L18.4489796,7.59473684 C18.6539683,7.11578947 18.9272865,6.70526316 19.2006047,6.22631579 L23.7786848,6.22631579 C23.5053666,5.74736842 23.1637188,5.26842105 22.7537415,4.85789474 L20.225548,4.85789474 C20.6355253,4.37894737 21.0455026,3.96842105 21.5238095,3.55789474 C19.2689342,1.43684211 16.1941043,0.205263158 12.8459562,0.205263158 L12.7776266,0.205263158" id="Shape" fill="#E52836"></path>
                            <path d="M12.9142857,25.9315789 C16.2624339,25.9315789 19.2689342,24.6315789 21.5921391,22.5789474 C22.070446,22.1684211 22.4804233,21.6894737 22.8904006,21.2105263 L20.225548,21.2105263 C19.8839002,20.8 19.5422525,20.3210526 19.2689342,19.9105263 L23.8470144,19.9105263 C24.1203326,19.5 24.3936508,19.0210526 24.5986395,18.5421053 L18.5173091,18.5421053 C18.3123205,18.1315789 18.1073318,17.6526316 17.9706727,17.1736842 L25.0769463,17.1736842 C25.4869237,15.8736842 25.7602419,14.5052632 25.7602419,13.0684211 C25.7602419,12.1105263 25.6235828,11.2210526 25.4869237,10.3315789 L17.5606954,10.3315789 C17.6290249,9.85263158 17.7656841,9.44210526 17.9023432,8.96315789 L25.0086168,8.96315789 C24.8719577,8.48421053 24.666969,8.00526316 24.4619803,7.59473684 L18.4489796,7.59473684 C18.6539683,7.11578947 18.9272865,6.70526316 19.2006047,6.22631579 L23.7786848,6.22631579 C23.5053666,5.74736842 23.1637188,5.26842105 22.7537415,4.85789474 L20.225548,4.85789474 C20.6355253,4.37894737 21.0455026,3.96842105 21.5238095,3.55789474 C19.2689342,1.43684211 16.1941043,0.205263158 12.8459562,0.205263158 L12.7776266,0.205263158" id="Shape" fill="#CB2026"></path>
                            <g id="Group" transform="translate(1.195767, 9.578947)" fill="#FFFFFF">
                                <path d="M16.2965986,6.70526316 L16.5015873,5.54210526 C16.4332577,5.54210526 16.2965986,5.61052632 16.1599395,5.61052632 C15.6816327,5.61052632 15.6133031,5.33684211 15.6816327,5.2 L16.09161,2.80526316 L16.8432351,2.80526316 L17.0482237,1.50526316 L16.3649282,1.50526316 L16.5015873,0.684210526 L15.1349962,0.684210526 C15.1349962,0.684210526 14.3150416,5.2 14.3150416,5.74736842 C14.3150416,6.56842105 14.7933485,6.91052632 15.4083144,6.91052632 C15.8182918,6.91052632 16.1599395,6.77368421 16.2965986,6.70526316 Z" id="Shape"></path>
                                <path d="M16.7749055,4.51578947 C16.7749055,6.43157895 18.073167,6.91052632 19.1664399,6.91052632 C20.1913832,6.91052632 20.6013605,6.70526316 20.6013605,6.70526316 L20.8746788,5.40526316 C20.8746788,5.40526316 20.1230537,5.74736842 19.4397581,5.74736842 C17.9365079,5.74736842 18.2098262,4.65263158 18.2098262,4.65263158 L21.0113379,4.65263158 C21.0113379,4.65263158 21.2163265,3.76315789 21.2163265,3.42105263 C21.2163265,2.53157895 20.7380197,1.43684211 19.2347695,1.43684211 C17.7998488,1.3 16.7749055,2.80526316 16.7749055,4.51578947 Z M19.1664399,2.53157895 C19.918065,2.53157895 19.7814059,3.42105263 19.7814059,3.48947368 L18.2781557,3.48947368 C18.2781557,3.42105263 18.4148148,2.53157895 19.1664399,2.53157895 Z" id="Shape"></path>
                                <path d="M27.8442933,6.70526316 L28.1176115,5.2 C28.1176115,5.2 27.4343159,5.54210526 26.9560091,5.54210526 C25.9993953,5.54210526 25.589418,4.78947368 25.589418,3.96842105 C25.589418,2.32631579 26.4093726,1.43684211 27.3659864,1.43684211 C28.0492819,1.43684211 28.5959184,1.84736842 28.5959184,1.84736842 L28.800907,0.410526316 C28.800907,0.410526316 27.9809524,0.0684210526 27.2293273,0.0684210526 C25.6577475,0.0684210526 24.0861678,1.43684211 24.0861678,4.03684211 C24.0861678,5.74736842 24.9061224,6.91052632 26.5460317,6.91052632 C27.0926682,6.91052632 27.8442933,6.70526316 27.8442933,6.70526316 Z" id="Shape"></path>
                                <path d="M8.78034769,1.3 C7.82373394,1.3 7.1404384,1.57368421 7.1404384,1.57368421 L6.93544974,2.73684211 C6.93544974,2.73684211 7.55041572,2.46315789 8.43869992,2.46315789 C8.9170068,2.46315789 9.32698413,2.53157895 9.32698413,2.94210526 C9.32698413,3.21578947 9.25865457,3.28421053 9.25865457,3.28421053 C9.25865457,3.28421053 8.84867725,3.28421053 8.64368859,3.28421053 C7.48208617,3.28421053 6.18382464,3.76315789 6.18382464,5.33684211 C6.18382464,6.56842105 7.00377929,6.84210526 7.48208617,6.84210526 C8.43869992,6.84210526 8.84867725,6.22631579 8.9170068,6.22631579 L8.84867725,6.77368421 L10.0786092,6.77368421 L10.6252457,3.01052632 C10.6252457,1.36842105 9.25865457,1.3 8.78034769,1.3 Z M9.05366591,4.37894737 C9.05366591,4.58421053 8.9170068,5.67894737 8.09705215,5.67894737 C7.68707483,5.67894737 7.55041572,5.33684211 7.55041572,5.13157895 C7.55041572,4.78947368 7.75540438,4.31052632 8.78034769,4.31052632 C8.98533636,4.37894737 9.05366591,4.37894737 9.05366591,4.37894737 Z" id="Shape"></path>
                                <path d="M11.9235072,6.84210526 C12.265155,6.84210526 13.9733938,6.91052632 13.9733938,5.06315789 C13.9733938,3.35263158 12.3334845,3.69473684 12.3334845,3.01052632 C12.3334845,2.66842105 12.6068027,2.53157895 13.0851096,2.53157895 C13.2900983,2.53157895 14.0417234,2.6 14.0417234,2.6 L14.246712,1.36842105 C14.246712,1.36842105 13.7684051,1.23157895 12.9484505,1.23157895 C11.9235072,1.23157895 10.8985639,1.64210526 10.8985639,3.01052632 C10.8985639,4.58421053 12.6068027,4.44736842 12.6068027,5.06315789 C12.6068027,5.47368421 12.1284958,5.54210526 11.7868481,5.54210526 C11.1718821,5.54210526 10.5569161,5.33684211 10.5569161,5.33684211 L10.3519274,6.56842105 C10.420257,6.70526316 10.7619048,6.84210526 11.9235072,6.84210526 Z" id="Shape"></path>
                                <path d="M39.1869992,0.205263158 L38.913681,2.05263158 C38.913681,2.05263158 38.3670446,1.36842105 37.6154195,1.36842105 C36.3854875,1.36842105 35.2922147,2.87368421 35.2922147,4.65263158 C35.2922147,5.74736842 35.8388511,6.91052632 37.0004535,6.91052632 C37.8204082,6.91052632 38.298715,6.36315789 38.298715,6.36315789 L38.2303855,6.84210526 L39.5969766,6.84210526 L40.6219199,0.273684211 L39.1869992,0.205263158 Z M38.5720333,3.83157895 C38.5720333,4.58421053 38.2303855,5.54210526 37.4787604,5.54210526 C37.0004535,5.54210526 36.7271353,5.13157895 36.7271353,4.44736842 C36.7271353,3.35263158 37.2054422,2.66842105 37.8204082,2.66842105 C38.298715,2.66842105 38.5720333,3.01052632 38.5720333,3.83157895 Z" id="Shape"></path>
                                <polygon id="Shape" points="1.3324263 6.77368421 2.15238095 1.84736842 2.28904006 6.77368421 3.24565382 6.77368421 5.02222222 1.84736842 4.27059713 6.77368421 5.70551776 6.77368421 6.79879063 0.205263158 4.54391534 0.205263158 3.17732426 4.24210526 3.10899471 0.205263158 1.12743764 0.205263158 0.034164777 6.77368421"></polygon>
                                <path d="M22.5145881,6.77368421 C22.9245654,4.51578947 22.9928949,2.66842105 23.9495087,3.01052632 C24.0861678,2.12105263 24.2911565,1.77894737 24.4278156,1.43684211 C24.4278156,1.43684211 24.359486,1.43684211 24.1544974,1.43684211 C23.5395314,1.43684211 23.0612245,2.25789474 23.0612245,2.25789474 L23.1978836,1.50526316 L21.8996221,1.50526316 L21.0113379,6.84210526 L22.5145881,6.84210526 L22.5145881,6.77368421 Z" id="Shape"></path>
                                <path d="M30.9874528,1.3 C30.030839,1.3 29.3475435,1.57368421 29.3475435,1.57368421 L29.1425548,2.73684211 C29.1425548,2.73684211 29.7575208,2.46315789 30.645805,2.46315789 C31.1241119,2.46315789 31.5340892,2.53157895 31.5340892,2.94210526 C31.5340892,3.21578947 31.4657596,3.28421053 31.4657596,3.28421053 C31.4657596,3.28421053 31.0557823,3.28421053 30.8507937,3.28421053 C29.6891912,3.28421053 28.3909297,3.76315789 28.3909297,5.33684211 C28.3909297,6.56842105 29.2108844,6.84210526 29.6891912,6.84210526 C30.645805,6.84210526 31.0557823,6.22631579 31.1241119,6.22631579 L31.0557823,6.77368421 L32.2857143,6.77368421 L32.8323507,3.01052632 C32.9006803,1.36842105 31.4657596,1.3 30.9874528,1.3 Z M31.3291005,4.37894737 C31.3291005,4.58421053 31.1924414,5.67894737 30.3724868,5.67894737 C29.9625094,5.67894737 29.8258503,5.33684211 29.8258503,5.13157895 C29.8258503,4.78947368 30.030839,4.31052632 31.0557823,4.31052632 C31.260771,4.37894737 31.260771,4.37894737 31.3291005,4.37894737 Z" id="Shape"></path>
                                <path d="M33.9939531,6.77368421 C34.4039305,4.51578947 34.47226,2.66842105 35.4288738,3.01052632 C35.5655329,2.12105263 35.7705215,1.77894737 35.9071807,1.43684211 C35.9071807,1.43684211 35.8388511,1.43684211 35.6338624,1.43684211 C35.0188964,1.43684211 34.5405896,2.25789474 34.5405896,2.25789474 L34.6772487,1.50526316 L33.3789872,1.50526316 L32.4907029,6.84210526 L33.9939531,6.84210526 L33.9939531,6.77368421 Z" id="Shape"></path>
                            </g>
                        </g>
                    </g>
                </g>
            </g>
        </g>
    </g>
</svg>