<svg width="123" height="169" viewBox="0 0 123 169" fill="none" xmlns="http://www.w3.org/2000/svg">
<g id="illus-checklist-kdrive">
<rect id="Rectangle-path" x="0.796875" y="1" width="121" height="121" rx="10.5931" fill="white" stroke="#E0E0E0"/>
<g id="Group">
<g id="ksuite Logos/Drive">
<g id="logo">
<path id="Rectangle Copy 32" opacity="0.504232" fill-rule="evenodd" clip-rule="evenodd" d="M48.3438 97.5821C48.3438 95.2971 50.6703 93.7485 52.7791 94.6298L58.2976 96.9361C59.1422 97.2891 59.7952 97.9867 60.0915 98.8526L62.2856 105.264C62.6388 106.296 63.4937 107.078 64.5536 107.337L87.5139 112.951C88.9465 113.301 89.9543 114.584 89.9543 116.059V142.841C89.9543 144.994 87.8704 146.533 85.8122 145.9L50.6032 135.069C49.2602 134.656 48.3438 133.416 48.3438 132.011V97.5821Z" fill="#A2BFFF"/>
<path id="Rectangle Copy 12" opacity="0.8" fill-rule="evenodd" clip-rule="evenodd" d="M40.3438 103.981C40.3438 101.696 42.6703 100.147 44.7791 101.028L50.2976 103.335C51.1422 103.688 51.7952 104.385 52.0915 105.251L54.2856 111.663C54.6388 112.695 55.4937 113.476 56.5536 113.735L79.5139 119.349C80.9465 119.699 81.9543 120.983 81.9543 122.457V149.24C81.9543 151.393 79.8704 152.931 77.8122 152.298L42.6032 141.468C41.2602 141.055 40.3438 139.814 40.3438 138.41V103.981Z" fill="#A0BDFF"/>
<path id="Rectangle" fill-rule="evenodd" clip-rule="evenodd" d="M32.3359 109.422C32.3359 107.137 34.6625 105.588 36.7713 106.47L42.2897 108.776C43.1343 109.129 43.7874 109.827 44.0837 110.692L46.2778 117.104C46.631 118.136 47.4859 118.917 48.5458 119.177L71.5061 124.79C72.9387 125.141 73.9465 126.424 73.9465 127.899V154.681C73.9465 156.834 71.8626 158.373 69.8043 157.74L34.5954 146.909C33.2524 146.496 32.3359 145.256 32.3359 143.851V109.422Z" fill="#1A47FF"/>
<path id="Rectangle Copy 37" fill-rule="evenodd" clip-rule="evenodd" d="M24.7816 124.808C23.92 122.368 26.1622 119.967 28.6566 120.66L64.2195 130.536C65.2931 130.834 66.1343 131.669 66.4404 132.74L73.1391 156.178C73.4881 157.399 72.3436 158.52 71.1296 158.147L33.8797 146.689C32.9107 146.391 32.1402 145.651 31.8027 144.696L24.7816 124.808Z" fill="#5287FF"/>
</g>
</g>
<g id="Icons/interface essential/check-circle-1">
<path id="icon" fill-rule="evenodd" clip-rule="evenodd" d="M86 137C77.1634 137 70 144.163 70 153C70 161.837 77.1634 169 86 169C94.8366 169 102 161.837 102 153C101.99 144.168 94.8323 137.01 86 137ZM95.236 147.933L86.1093 160.319C85.8917 160.607 85.5671 160.797 85.2086 160.844C84.85 160.891 84.4876 160.792 84.2027 160.569L77.6853 155.359C77.1102 154.898 77.0171 154.059 77.4773 153.484C77.9376 152.909 78.7769 152.816 79.352 153.276L84.7867 157.624L93.0893 146.356C93.3616 145.947 93.8363 145.722 94.3251 145.768C94.8138 145.815 95.2375 146.126 95.4279 146.578C95.6183 147.031 95.5445 147.551 95.236 147.933Z" fill="#3EBF4D"/>
<mask id="mask0_3015_52203" style="mask-type:alpha" maskUnits="userSpaceOnUse" x="70" y="137" width="32" height="32">
<path id="icon_2" fill-rule="evenodd" clip-rule="evenodd" d="M86 137C77.1634 137 70 144.163 70 153C70 161.837 77.1634 169 86 169C94.8366 169 102 161.837 102 153C101.99 144.168 94.8323 137.01 86 137ZM95.236 147.933L86.1093 160.319C85.8917 160.607 85.5671 160.797 85.2086 160.844C84.85 160.891 84.4876 160.792 84.2027 160.569L77.6853 155.359C77.1102 154.898 77.0171 154.059 77.4773 153.484C77.9376 152.909 78.7769 152.816 79.352 153.276L84.7867 157.624L93.0893 146.356C93.3616 145.947 93.8363 145.722 94.3251 145.768C94.8138 145.815 95.2375 146.126 95.4279 146.578C95.6183 147.031 95.5445 147.551 95.236 147.933Z" fill="white"/>
</mask>
<g mask="url(#mask0_3015_52203)">
</g>
</g>
</g>
<g id="products Logos/domaines">
<path id="Combined Shape" fill-rule="evenodd" clip-rule="evenodd" d="M30.5938 28.3008C30.5938 23.8825 27.012 20.3008 22.5938 20.3008C18.1755 20.3008 14.5938 23.8825 14.5938 28.3008C14.5938 32.7191 18.1755 36.3008 22.5938 36.3008C27.012 36.3008 30.5938 32.7191 30.5938 28.3008ZM15.9271 28.3008C15.9271 24.6189 18.9119 21.6341 22.5938 21.6341C26.2757 21.6341 29.2604 24.6189 29.2604 28.3008C29.2604 31.9827 26.2757 34.9674 22.5938 34.9674C21.4462 34.9674 20.3664 34.6775 19.4235 34.1669C18.7261 33.5797 19.4396 32.386 19.4396 32.386C19.4396 32.386 19.5347 30.5997 17.9729 30.5997C16.7187 30.5997 16.2562 30.1051 16.1227 29.9103C15.9949 29.3948 15.9271 28.8557 15.9271 28.3008ZM24.5862 23.5558C24.6903 23.5697 24.8015 23.602 24.9198 23.6527C24.9198 23.6527 25.3335 23.8867 25.5003 24.0933C25.6773 24.3125 25.8492 24.7514 26.0111 25.1649C26.1528 25.5268 26.2869 25.8691 26.4101 26.0278C26.6053 26.2792 26.921 26.3842 27.189 26.4734C27.3633 26.5313 27.5174 26.5826 27.6052 26.6631C27.8445 26.8824 27.9169 27.1071 27.9169 27.1071L27.927 27.19C27.9288 27.2908 27.9013 27.3819 27.8445 27.4632C27.7688 27.5717 27.7096 27.649 27.667 27.6951C27.6008 27.7689 27.5191 27.8486 27.4221 27.9339C27.3251 28.0193 27.2103 28.1197 27.0778 28.235C27.0163 28.2904 26.95 28.3481 26.8791 28.4081C26.8081 28.4681 26.7347 28.5327 26.659 28.6019C26.5786 28.6757 26.5324 28.7588 26.5206 28.8511C26.5087 28.9434 26.5147 29.091 26.5383 29.2941C26.5573 29.4279 26.5703 29.5756 26.5774 29.7371C26.5845 29.8986 26.5703 30.0705 26.5348 30.2528C26.4993 30.435 26.4295 30.63 26.3254 30.8377C26.2213 31.0453 26.0674 31.2622 25.864 31.4883C25.8261 31.5299 25.7882 31.5956 25.7504 31.6856C25.7125 31.7756 25.6747 31.869 25.6368 31.9659C25.5705 32.1274 25.4936 32.304 25.4061 32.4955C25.3185 32.687 25.199 32.8658 25.0476 33.0319C24.8583 33.2303 24.6359 33.3803 24.3803 33.4818C24.1248 33.5834 23.8385 33.6341 23.5214 33.6341C23.4031 33.6341 23.2931 33.6064 23.1913 33.5511C23.0896 33.4957 23.0032 33.4149 22.9322 33.3088C22.8802 33.2396 22.8352 33.1577 22.7973 33.0631C22.7595 32.9685 22.7263 32.8589 22.698 32.7343C22.6506 32.5266 22.6128 32.2924 22.5844 32.0317C22.556 31.771 22.53 31.4976 22.5063 31.2114C22.4921 31.0361 22.4779 30.8584 22.4637 30.6785C22.4495 30.4985 22.4318 30.3185 22.4105 30.1386C22.3892 29.9586 22.3631 29.7832 22.3324 29.6125C22.3016 29.4417 22.2649 29.2802 22.2223 29.128C22.1419 28.8188 22.0425 28.5765 21.9242 28.4012C21.8059 28.2258 21.6663 28.1127 21.5054 28.062C21.4155 28.0343 21.3267 28.0135 21.2392 27.9997C21.1516 27.9858 21.0582 27.9789 20.9588 27.9789C20.8783 27.9789 20.8002 27.9824 20.7245 27.9893C20.6488 27.9962 20.5731 28.0043 20.4974 28.0135C20.4217 28.0228 20.3483 28.0297 20.2773 28.0343C20.2063 28.0389 20.1353 28.0412 20.0644 28.0412L19.8963 28.0321C19.6789 28.0077 19.4889 27.9346 19.3261 27.8128C19.1226 27.6605 18.9475 27.4182 18.8008 27.086C18.673 26.8091 18.6044 26.508 18.5949 26.1827C18.5855 25.8573 18.6328 25.5332 18.7369 25.2102C18.8458 24.8733 19.0067 24.5653 19.2196 24.2861C19.4326 24.0069 19.6858 23.7727 19.9792 23.5835C20.3152 23.3666 20.6157 23.2097 20.8807 23.1128C21.1457 23.0159 21.3989 22.9675 21.6403 22.9675C21.839 22.9675 22.0425 22.9974 22.2507 23.0574C22.459 23.1174 22.6956 23.2166 22.9606 23.3551C23.131 23.4428 23.2824 23.4981 23.4149 23.5212C23.5474 23.5443 23.6657 23.5558 23.7699 23.5558C23.8124 23.5558 23.8562 23.5547 23.9012 23.5524C23.9461 23.55 23.9899 23.5489 24.0325 23.5489C24.0798 23.5443 24.126 23.5408 24.1709 23.5385C24.2159 23.5362 24.262 23.535 24.3093 23.535C24.3898 23.535 24.4821 23.542 24.5862 23.5558Z" fill="#7986CB"/>
</g>
<g id="Logo/H&#195;&#169;bergement mail Copy 2">
<path id="Combined Shape_2" fill-rule="evenodd" clip-rule="evenodd" d="M21.7775 57.7539L15.2067 54.8978H15.2081C14.835 54.7357 14.5938 54.3679 14.5938 53.9614C14.5938 53.5549 14.835 53.187 15.2081 53.0249L21.7775 50.1702C22.2989 49.9433 22.8912 49.9433 23.4127 50.1702L29.9786 53.0256C30.3521 53.1875 30.5938 53.5556 30.5938 53.9624C30.5938 54.3692 30.3521 54.7372 29.9786 54.8992L23.4072 57.7539C22.8873 57.979 22.2974 57.979 21.7775 57.7539ZM22.888 59.187L29.4561 56.0552C29.789 55.9232 30.1674 56.0714 30.322 56.3943C30.4766 56.7172 30.3545 57.1046 30.0427 57.2807L23.4753 60.4125C22.9186 60.678 22.2716 60.678 21.7148 60.4125L15.1481 57.2807C14.9115 57.1869 14.747 56.9691 14.7215 56.716C14.6961 56.4629 14.8139 56.2168 15.0271 56.0778C15.2402 55.9387 15.5132 55.9301 15.7348 56.0552L22.3021 59.187C22.4872 59.2762 22.7029 59.2762 22.888 59.187ZM22.888 61.9389L29.456 58.8071C29.789 58.6751 30.1674 58.8232 30.322 59.1462C30.4766 59.4691 30.3545 59.8564 30.0427 60.0326L23.4753 63.1644C22.9186 63.4299 22.2716 63.4299 21.7148 63.1644L15.1481 60.0326C14.8363 59.8564 14.7142 59.4691 14.8688 59.1462C15.0234 58.8232 15.4018 58.6751 15.7348 58.8071L22.3021 61.9389C22.4874 62.0271 22.7027 62.0271 22.888 61.9389ZM29.4561 61.4385L22.888 64.5703C22.7029 64.6595 22.4872 64.6595 22.3021 64.5703L15.7348 61.4385C15.395 61.2766 14.9882 61.4207 14.8262 61.7602C14.6642 62.0997 14.8083 62.5062 15.1481 62.6681L21.7148 65.7998C22.2712 66.0667 22.9189 66.0667 23.4753 65.7998L30.0427 62.6681C30.3825 62.5062 30.5266 62.0997 30.3646 61.7602C30.2026 61.4207 29.7958 61.2766 29.4561 61.4385Z" fill="#1DBAB0"/>
</g>
<g id="Logo/H&#195;&#169;bergement mail Copy 3">
<path id="Combined Shape_3" fill-rule="evenodd" clip-rule="evenodd" d="M30.5938 85.6783C30.5938 85.9849 30.3709 86.2492 30.0604 86.3106C29.5944 86.4021 29.2594 86.7987 29.2594 87.2589C29.2594 87.7192 29.5944 88.1157 30.0604 88.2073C30.3709 88.2687 30.5938 88.533 30.5938 88.8396V91.4525C30.5938 91.987 30.146 92.4202 29.5938 92.4202H15.5937C15.3285 92.4202 15.0742 92.3183 14.8866 92.1368C14.6991 91.9553 14.5938 91.7092 14.5938 91.4525V88.8396C14.5937 88.533 14.8166 88.2687 15.1271 88.2073C15.5931 88.1157 15.9281 87.7192 15.9281 87.2589C15.9281 86.7987 15.5931 86.4021 15.1271 86.3106C14.8166 86.2492 14.5937 85.9849 14.5938 85.6783V83.0654C14.5938 82.5309 15.0415 82.0977 15.5937 82.0977H29.5938C30.146 82.0977 30.5937 82.5309 30.5938 83.0654V85.6783ZM25.5938 90.8073C25.5938 91.0746 25.8176 91.2912 26.0938 91.2912C26.3699 91.2912 26.5938 91.0746 26.5938 90.8073C26.5938 90.5401 26.3699 90.3235 26.0938 90.3235C25.8176 90.3235 25.5938 90.5401 25.5938 90.8073ZM26.0938 88.9254C25.8176 88.9254 25.5938 88.7088 25.5938 88.4415C25.5938 88.1743 25.8176 87.9577 26.0938 87.9577C26.3699 87.9577 26.5938 88.1743 26.5938 88.4415C26.5938 88.7088 26.3699 88.9254 26.0938 88.9254ZM25.5938 86.0764C25.5938 86.3436 25.8176 86.5602 26.0938 86.5602C26.3699 86.5602 26.5938 86.3436 26.5938 86.0764C26.5938 85.8091 26.3699 85.5925 26.0938 85.5925C25.8176 85.5925 25.5938 85.8091 25.5938 86.0764ZM26.0938 84.1944C25.8176 84.1944 25.5938 83.9778 25.5938 83.7106C25.5938 83.4433 25.8176 83.2267 26.0938 83.2267C26.3699 83.2267 26.5938 83.4433 26.5938 83.7106C26.5938 83.9778 26.3699 84.1944 26.0938 84.1944ZM21.8344 87.6815L22.7338 86.9783L22.7364 86.9777C22.8463 86.8918 22.8883 86.7482 22.8413 86.6193C22.7943 86.4904 22.6684 86.4041 22.5271 86.4041H21.5644C21.4972 86.4043 21.4365 86.3653 21.4104 86.3054L20.9004 85.1241C20.8484 85.0043 20.7273 84.9264 20.5931 84.9264C20.4589 84.9264 20.3377 85.0043 20.2858 85.1241L19.7704 86.306C19.7444 86.3658 19.684 86.4046 19.6171 86.4048H18.6564C18.5152 86.4048 18.3892 86.491 18.3422 86.6199C18.2952 86.7488 18.3372 86.8924 18.4471 86.9783L19.3464 87.6822C19.4024 87.7257 19.4231 87.7991 19.3978 87.8641L18.9604 88.9925C18.909 89.1254 18.9534 89.2752 19.0698 89.3615C19.1861 89.4478 19.3471 89.4505 19.4664 89.368L20.4938 88.6583C20.5515 88.6182 20.6293 88.6182 20.6871 88.6583L21.7151 89.368C21.8345 89.4502 21.9954 89.4473 22.1115 89.3608C22.2277 89.2744 22.2719 89.1246 22.2204 88.9918L21.7831 87.8635C21.7577 87.7985 21.7785 87.725 21.8344 87.6815Z" fill="#FF3E60"/>
</g>
<rect id="Rectangle Copy 18" x="40.3906" y="27" width="43" height="4" rx="1.92" fill="#CACACA"/>
<rect id="Rectangle Copy 20" x="40.3906" y="56" width="43" height="4" rx="1.92" fill="#CACACA"/>
<rect id="Rectangle Copy 21" x="40.3906" y="84" width="43" height="4" rx="1.92" fill="#CACACA"/>
<g id="Icons/interface essential/check">
<g id="check-2">
<path id="Path" fill-rule="evenodd" clip-rule="evenodd" d="M106.197 25.4386L100.228 33.6444C100.085 33.8358 99.873 33.9611 99.6385 33.9924C99.404 34.0236 99.1669 33.9581 98.9806 33.8105L94.7179 30.3582C94.3418 30.0533 94.2809 29.4972 94.5819 29.1162C94.8829 28.7351 95.4319 28.6734 95.808 28.9783L99.3625 31.8591L104.793 24.3935C104.971 24.1228 105.281 23.9732 105.601 24.004C105.921 24.0348 106.198 24.241 106.322 24.5408C106.447 24.8407 106.399 25.1856 106.197 25.4386Z" fill="#666666"/>
</g>
</g>
<g id="Icons/interface essential/check Copy">
<g id="check-2_2">
<path id="Path_2" fill-rule="evenodd" clip-rule="evenodd" d="M105.197 54.4386L99.2276 62.6444C99.0853 62.8358 98.873 62.9611 98.6385 62.9924C98.404 63.0236 98.1669 62.9581 97.9806 62.8105L93.7179 59.3582C93.3418 59.0533 93.2809 58.4972 93.5819 58.1162C93.8829 57.7351 94.4319 57.6734 94.808 57.9783L98.3625 60.8591L103.793 53.3935C103.971 53.1228 104.281 52.9732 104.601 53.004C104.921 53.0348 105.198 53.241 105.322 53.5408C105.447 53.8407 105.399 54.1856 105.197 54.4386Z" fill="#666666"/>
</g>
</g>
<g id="Icons/interface essential/check Copy 2">
<g id="check-2_3">
<path id="Path_3" fill-rule="evenodd" clip-rule="evenodd" d="M105.197 83.4386L99.2276 91.6444C99.0853 91.8358 98.873 91.9611 98.6385 91.9924C98.404 92.0236 98.1669 91.9581 97.9806 91.8105L93.7179 88.3582C93.3418 88.0533 93.2809 87.4972 93.5819 87.1162C93.8829 86.7351 94.4319 86.6734 94.808 86.9783L98.3625 89.8591L103.793 82.3935C103.971 82.1228 104.281 81.9732 104.601 82.004C104.921 82.0348 105.198 82.241 105.322 82.5408C105.447 82.8407 105.399 83.1856 105.197 83.4386Z" fill="#666666"/>
</g>
</g>
</g>
</svg>
